<svg width="40" height="40" viewBox="0 0 115 85" fill="none" xmlns="http://www.w3.org/2000/svg">
<path d="M112.241 8.81082C114.346 7.48906 114.981 4.71141 113.659 2.60675C112.337 0.502091 109.559 -0.132576 107.455 1.18918L112.241 8.81082ZM0.61307 69.8438C0.0594749 72.2666 1.5748 74.6795 3.99764 75.2331L43.4801 84.2544C45.9029 84.808 48.3158 83.2927 48.8694 80.8699C49.423 78.447 47.9077 76.0341 45.4849 75.4806L10.3893 67.4616L18.4083 32.366C18.9619 29.9432 17.4466 27.5303 15.0237 26.9767C12.6009 26.4231 10.188 27.9385 9.63441 30.3613L0.61307 69.8438ZM107.455 1.18918L2.60676 67.0353L7.39326 74.657L112.241 8.81082L107.455 1.18918Z" fill="#4D4E63"/>
</svg>
