<svg width="480" height="444" viewBox="0 0 480 444" fill="none" xmlns="http://www.w3.org/2000/svg">
    <g id="sobre" clip-path="url(#clip0)">
        <path id="Vector" d="M432.371 442.992H47.5374C34.9175 442.992 22.8146 437.978 13.891 429.055C4.96743 420.131 -0.0457764 408.028 -0.0457764 395.408V219.097C-0.0457757 216.536 0.475819 214.003 1.48715 211.651C2.49849 209.298 3.97836 207.177 5.83655 205.416L209.76 12.1128C217.914 4.38424 228.72 0.076355 239.954 0.076355C251.188 0.076355 261.995 4.38424 270.148 12.1128L464.579 196.417C469.436 201.021 473.304 206.566 475.947 212.714C478.591 218.863 479.954 225.485 479.954 232.177V395.408C479.954 401.657 478.723 407.845 476.332 413.618C473.941 419.391 470.436 424.636 466.017 429.055C461.599 433.473 456.353 436.978 450.58 439.37C444.807 441.761 438.62 442.992 432.371 442.992Z" fill="#262742"/>
        <path id="Vector_2" opacity="0.1" d="M-0.0457764 221.992H475.954V414.259C475.954 421.88 472.927 429.188 467.539 434.576C462.15 439.964 454.842 442.992 447.222 442.992H28.6865C21.0662 442.992 13.7581 439.964 8.36971 434.576C2.98136 429.188 -0.0457764 421.88 -0.0457764 414.259V221.992V221.992Z" fill="black"/>
    <g id="carta">
        <g id="carta_2">
            <path id="Vector_3" d="M390.819 125H89.1811C74.7217 125 63 136.722 63 151.181V452.819C63 467.278 74.7217 479 89.1811 479H390.819C405.278 479 417 467.278 417 452.819V151.181C417 136.722 405.278 125 390.819 125Z" fill="#6C63FF"/>
            <path id="Vector_4" d="M192.5 157.5H93.5V171.5H192.5V157.5Z" fill="#F2F2F2"/>
            <path id="Vector_5" d="M379.5 208.5H85.5V216.5H379.5V208.5Z" fill="#F2F2F2"/>
            <path id="Vector_6" d="M379.5 235.5H85.5V243.5H379.5V235.5Z" fill="#F2F2F2"/>
            <path id="Vector_7" d="M379.5 262.5H85.5V270.5H379.5V262.5Z" fill="#F2F2F2"/>
        </g>
        <path id="Vector_8" opacity="0.1" d="M416.454 229.942V424.492H62.454V229.942L239.454 315.492L416.454 229.942Z" fill="black"/>
    </g>
        <path id="Vector_9" d="M239 327.249L12.2062 216.923C10.8034 216.241 9.25144 215.928 7.69574 216.014C6.14004 216.1 4.63157 216.583 3.31174 217.416C1.9919 218.249 0.903928 219.406 0.14978 220.779C-0.604368 222.151 -0.999998 223.693 -1 225.261V415.082C-1 418.879 -0.256828 422.64 1.1871 426.148C2.63103 429.657 4.74746 432.845 7.4155 435.53C10.0835 438.215 13.2509 440.345 16.7369 441.799C20.2229 443.252 23.9591 444 27.7323 444H450.268C454.041 444 457.777 443.252 461.263 441.799C464.749 440.345 467.916 438.215 470.585 435.53C473.253 432.845 475.369 429.657 476.813 426.148C478.257 422.64 479 418.879 479 415.082V228.513C479 226.6 478.517 224.717 477.597 223.043C476.677 221.368 475.349 219.957 473.739 218.94C472.128 217.923 470.287 217.334 468.389 217.229C466.491 217.124 464.597 217.505 462.885 218.338L239 327.249Z" fill="#262742"/>
    </g>
    <defs>
    <clipPath id="clip0">
    <rect width="480" height="444" fill="white"/>
    </clipPath>
    </defs>
</svg>