<svg width="60" height="42" viewBox="0 0 60 42" fill="none" xmlns="http://www.w3.org/2000/svg">
<g id="frameBocadillo" clip-path="url(#clip0_3_2)">
<g id="bocadillo">
<path id="Vector" d="M34.5118 41.515C34.3664 41.4918 31.9201 41.1236 29.2941 39.0054C26.8076 37.0107 24.2528 33.4171 23.4712 27.4104C18.8041 26.9439 14.547 25.9904 10.9676 24.6581C7.11803 23.2181 4.03846 21.3602 2.0852 19.0644C0.78841 17.5391 -0.00307042 15.7611 -0.000592151 13.8653C-0.00228781 11.718 1.00624 9.73863 2.61894 8.07666C4.23777 6.40483 6.4776 4.98091 9.1853 3.79245C14.6003 1.42434 21.9216 0.00249204 30.0001 -0.000747681V2.59103C24.1772 2.59025 18.771 3.36999 14.3323 4.68467C9.89187 5.99196 6.42921 7.86232 4.50164 9.87133C3.20876 11.2167 2.6102 12.5433 2.60876 13.8653C2.61098 15.0383 3.07715 16.2024 4.08229 17.3963C5.08351 18.5831 6.62238 19.7507 8.60278 20.7841C12.5627 22.8589 18.2576 24.3909 24.7598 24.9257L25.8503 25.0157L25.9506 26.0983C26.4423 31.3342 28.2396 34.361 30.0579 36.1985C30.5846 36.7285 31.1186 37.1594 31.6306 37.509C30.5416 35.1005 29.3607 31.4537 29.0122 26.5267L28.9141 25.1464L30.3072 25.1412C36.0764 25.1149 41.4255 24.3222 45.8133 23.0043C50.2028 21.694 53.6213 19.831 55.5229 17.8346C56.798 16.4975 57.3886 15.1803 57.3902 13.8667C57.3885 12.5449 56.7901 11.2181 55.4973 9.87289C54.2108 8.53708 52.2462 7.25234 49.7605 6.16561C44.7883 3.98307 37.7605 2.58896 29.9983 2.59245V0.000677797C36.0555 0.00145533 41.69 0.805684 46.411 2.20226C51.1309 3.60675 54.9479 5.57572 57.3786 8.07795C58.9913 9.73993 59.9997 11.7193 59.998 13.8666C59.9997 15.9996 59.0042 17.9678 57.4105 19.6224C55.8105 21.2864 53.5969 22.7056 50.9193 23.893C45.8824 26.1178 39.1755 27.5182 31.7349 27.7108C32.5855 35.5114 35.6146 39.2953 35.7035 39.4094L35.7034 39.4096L37.8616 42.0007L34.5094 41.5134L34.5118 41.515Z" fill="#010101"/>
</g>
</g>
<defs>
<clipPath id="clip0_3_2">
<rect width="60" height="42" fill="white"/>
</clipPath>
</defs>
</svg>
