<svg width="96" height="114" viewBox="0 0 96 114" fill="none" xmlns="http://www.w3.org/2000/svg">
<path d="M28.4838 97.5487H27.9878V86.8173H60.0467C60.5813 86.8173 61.0129 86.3857 61.0129 85.8511V69.6509H75.7186C76.4851 72.8137 80.0086 74.8363 83.3259 73.3483C84.8847 72.6462 86.0506 71.2162 86.3985 69.5479C87.1392 66.0115 84.4467 62.8875 81.0392 62.8875C78.5335 62.8875 76.3048 64.646 75.7122 67.0808H61.0129V26.8414H75.7186C76.4851 30.0041 80.0086 32.0267 83.3259 30.5387C84.8847 29.8366 86.0506 28.4066 86.3985 26.7383C87.1392 23.202 84.4467 20.0779 81.0392 20.0779C78.5335 20.0779 76.3048 21.8364 75.7122 24.2712H59.4025C58.8679 24.2712 58.4363 24.7028 58.4363 25.2374V37.9463H32.0201C31.2536 34.7901 27.7366 32.7674 24.4257 34.249C22.8669 34.9446 21.6945 36.3746 21.3403 38.0494C20.5931 41.5857 23.2856 44.7227 26.6931 44.7227C29.1988 44.7227 31.4275 42.9642 32.0201 40.5293H58.4363V84.2536H26.371C25.8364 84.2536 25.4048 84.6852 25.4048 85.2198V97.5616H8.55408C6.71828 97.5616 5.05639 98.7725 4.48955 100.518C3.25924 100.132 2.46695 98.94 2.58933 97.6453C2.7246 96.2733 3.97424 95.1911 5.43 95.1911H21.7718C22.3065 95.1911 22.7381 94.7595 22.7381 94.2249V93.5808C22.7381 93.0461 22.3065 92.6146 21.7718 92.6146H5.48797C4.06442 92.6146 2.66019 93.1041 1.63601 94.0961C0.489437 95.204 -0.09029 96.7048 0.0192139 98.283C0.173808 100.602 1.92587 102.567 4.28342 103.088V104.505C4.28342 106.869 6.19652 108.782 8.56052 108.782H28.4902C30.8542 108.782 32.7673 106.869 32.7673 104.505V101.839C32.7609 99.4618 30.8413 97.5487 28.4838 97.5487ZM28.4838 106.187H23.292V100.119H28.4838C29.4242 100.119 30.1843 100.879 30.1843 101.819V104.486C30.1843 105.427 29.4178 106.187 28.4838 106.187ZM81.0392 65.4511C82.6431 65.4511 83.9443 66.7523 83.9443 68.3562C83.9443 69.9601 82.6431 71.2613 81.0392 71.2613C79.4353 71.2613 78.1341 69.9601 78.1341 68.3562C78.1341 66.7523 79.4353 65.4511 81.0392 65.4511ZM81.0392 22.648C82.6431 22.648 83.9443 23.9492 83.9443 25.5531C83.9443 27.157 82.6431 28.4582 81.0392 28.4582C79.4353 28.4582 78.1341 27.157 78.1341 25.5531C78.1341 23.9492 79.4353 22.648 81.0392 22.648ZM26.6931 42.1268C25.0892 42.1268 23.788 40.8256 23.788 39.2217C23.788 37.6178 25.0892 36.3167 26.6931 36.3167C28.297 36.3167 29.5982 37.6178 29.5982 39.2217C29.5982 40.8256 28.297 42.1268 26.6931 42.1268ZM6.85355 101.819C6.85355 100.879 7.61363 100.119 8.55408 100.119H20.6317V106.187H8.55408C7.61363 106.187 6.85355 105.427 6.85355 104.486V101.819V101.819Z" fill="#22252C"/>
<path d="M86.0635 52.71H76.0149C74.3144 52.71 72.936 54.0885 72.936 55.789V61.3093C72.4142 61.9083 71.9633 62.5589 71.5961 63.2353L71.4416 63.5187C71.1839 63.9889 71.3578 64.5751 71.828 64.8327L72.3949 65.1419C72.8651 65.3996 73.4513 65.2257 73.7025 64.7554L73.8571 64.472C75.6091 61.2513 79.3194 59.5186 83.0425 60.4333C86.2503 61.2256 88.7045 63.9696 89.1425 67.2418C89.8124 72.2404 85.9154 76.5303 81.0457 76.5303C78.0247 76.5303 75.2549 74.8685 73.8313 72.1888L73.6832 71.9054C73.4319 71.4352 72.8458 71.2548 72.3756 71.506L71.8087 71.8088C71.3385 72.06 71.1581 72.6462 71.4093 73.1164L71.5639 73.3998C71.9375 74.1019 72.4078 74.7783 72.9488 75.4031V83.7318C72.9488 85.4324 74.3273 86.8108 76.0278 86.8108H86.0829C87.7834 86.8108 89.1619 85.4324 89.1619 83.7318V75.3967C90.8688 73.4385 91.8028 70.9392 91.8028 68.3626C91.8028 65.7861 90.8624 63.2868 89.1619 61.3286V55.7955C89.1425 54.0885 87.7641 52.71 86.0635 52.71ZM75.5061 77.5738C77.1808 78.5787 79.0875 79.1069 81.0328 79.1069C82.9781 79.1069 84.8848 78.5723 86.5595 77.561V83.7318C86.5595 84.0088 86.3341 84.2343 86.0571 84.2343H76.0085C75.7315 84.2343 75.5061 84.0088 75.5061 83.7318V77.5738ZM75.5061 55.789C75.5061 55.512 75.7315 55.2866 76.0085 55.2866H86.0571C86.3341 55.2866 86.5595 55.512 86.5595 55.789V59.1579C84.8783 58.1466 82.9717 57.6119 81.0328 57.6119C79.0875 57.6119 77.1808 58.1466 75.5061 59.1514V55.789Z" fill="#22252C"/>
<path d="M5.93253 78.4499H46.7002C49.9789 78.4499 52.6327 75.796 52.6327 72.5174V44.1494C52.6327 43.6148 52.2012 43.1832 51.6665 43.1832H51.0224C50.4877 43.1832 50.0562 43.6148 50.0562 44.1494V65.2514H2.57656V9.61058H50.0497V34.3005C50.0497 34.8351 50.4813 35.2667 51.0159 35.2667H51.6601C52.1947 35.2667 52.6263 34.8351 52.6263 34.3005V5.93253C52.6263 2.65386 49.9724 0 46.6938 0H5.93253C2.65386 0 0 2.65386 0 5.93253V6.22884C0 6.30614 0.0128828 6.38343 0.032207 6.42208C0.0128828 6.50582 0 6.58956 0 6.66041V72.5174C0 75.7896 2.65386 78.4499 5.93253 78.4499ZM46.6938 75.8733H5.93253C4.08385 75.8733 2.57656 74.366 2.57656 72.5174V67.828H50.0497V72.5174C50.0497 74.366 48.5424 75.8733 46.6938 75.8733ZM50.0497 7.03402H2.57656V5.93253C2.57656 4.08385 4.08385 2.57656 5.93253 2.57656H46.7002C48.5489 2.57656 50.0562 4.08385 50.0562 5.93253V7.03402H50.0497Z" fill="#22252C"/>
<path d="M89.3487 0H72.7299C69.4577 0 66.7974 2.65386 66.7974 5.93253V20.6254C66.7974 21.16 67.2289 21.5916 67.7636 21.5916H68.4077C68.9424 21.5916 69.3739 21.16 69.3739 20.6254V9.61058H92.6983V37.3151H69.3739V30.4743C69.3739 29.9397 68.9424 29.5081 68.4077 29.5081H67.7636C67.2289 29.5081 66.7974 29.9397 66.7974 30.4743V42.1848C66.7974 45.457 69.4512 48.1173 72.7299 48.1173H89.3487C92.621 48.1173 95.2813 45.4634 95.2813 42.1848V5.93253C95.2813 2.65386 92.621 0 89.3487 0ZM72.7299 2.57656H89.3487C91.1974 2.57656 92.7047 4.08385 92.7047 5.93253V7.03402H69.3739V5.93253C69.3739 4.08385 70.8812 2.57656 72.7299 2.57656ZM69.3739 39.8852H92.6983V42.1848C92.6983 44.0335 91.191 45.5407 89.3423 45.5407H72.7235C70.8748 45.5407 69.3675 44.0335 69.3675 42.1848V39.8852H69.3739Z" fill="#22252C"/>
<path d="M89.7931 92.6016H31.6208C31.0861 92.6016 30.6545 93.0332 30.6545 93.5678V94.212C30.6545 94.7466 31.0861 95.1782 31.6208 95.1782H34.2875C38.7256 95.1782 42.3328 98.605 42.584 103.017C42.4359 102.908 42.2877 102.818 42.146 102.74C41.5212 102.405 40.8126 102.225 40.0912 102.225C39.6661 102.225 39.2538 102.283 38.8544 102.405C37.7465 102.74 36.8383 103.481 36.2908 104.499L34.6804 107.481C34.178 108.415 33.959 109.497 34.1715 110.535C34.4356 111.81 35.2279 112.873 36.3616 113.485C36.9864 113.82 37.695 114 38.41 114C39.1379 114 39.8593 113.82 40.5228 113.459C41.2764 113.047 41.869 112.383 42.2748 111.63L43.2346 109.839L43.8465 108.724C44.7226 107.133 45.1799 105.323 45.1799 103.494C45.1799 100.273 43.7692 97.2588 41.3022 95.1717H54.2365C51.7695 97.2523 50.3588 100.273 50.3588 103.494C50.3588 105.323 50.8226 107.127 51.6922 108.724L51.9369 109.169L53.2961 111.694C53.4893 112.055 53.7212 112.396 54.0111 112.686C54.8742 113.556 55.9821 113.994 57.1223 113.994C57.8308 113.994 58.5394 113.813 59.1706 113.478C60.3043 112.866 61.0966 111.81 61.3607 110.528C61.5733 109.491 61.3543 108.409 60.8519 107.475L59.2479 104.492C58.7004 103.475 57.7922 102.734 56.6843 102.399C56.2849 102.283 55.8726 102.219 55.4475 102.219C54.7261 102.219 54.0111 102.399 53.3927 102.734C53.251 102.811 53.1157 102.895 52.9676 102.998C53.2252 98.5986 56.8324 95.1782 61.2641 95.1782H89.8897C90.5725 95.1782 91.2488 95.3908 91.7642 95.8416C92.4469 96.4407 92.7819 97.291 92.6982 98.1799C92.5629 99.5583 91.3197 100.634 89.8575 100.634H87.4098C86.8622 100.634 86.4178 101.079 86.4178 101.626V102.225C86.4178 102.773 86.8622 103.217 87.4098 103.217H89.7995C92.6853 103.217 95.0879 101.046 95.2747 98.2765C95.3842 96.6984 94.8045 95.1975 93.6579 94.0896C92.6209 93.0912 91.2166 92.6016 89.7931 92.6016ZM36.7352 110.174C36.6 109.729 36.6515 109.253 36.8705 108.84L38.5517 105.716C38.7707 105.304 39.1443 105.008 39.5888 104.873C39.7498 104.821 39.9237 104.795 40.0976 104.795C40.3875 104.795 40.6645 104.866 40.9221 105.008C41.3344 105.227 41.6307 105.6 41.766 106.045C41.9012 106.496 41.8497 106.966 41.6307 107.378L39.9495 110.502C39.7305 110.915 39.3569 111.211 38.9124 111.346C38.7514 111.398 38.5775 111.423 38.41 111.423C38.1201 111.423 37.8431 111.353 37.5855 111.211C37.1732 110.992 36.8705 110.625 36.7352 110.174ZM55.9371 104.866C56.3815 105.001 56.7551 105.298 56.9741 105.71L58.6553 108.834C58.8743 109.246 58.9259 109.723 58.7906 110.167C58.6553 110.612 58.3526 110.985 57.9403 111.204C57.6891 111.34 57.3993 111.417 57.1158 111.417C56.9419 111.417 56.7744 111.391 56.6134 111.34C56.1625 111.204 55.7953 110.908 55.5763 110.496L54.565 108.615H54.5715L54.2043 107.939L53.9016 107.365L53.8694 107.301C53.6761 106.902 53.6375 106.457 53.7663 106.038C53.9016 105.587 54.2043 105.22 54.6101 105.001C54.8678 104.86 55.1448 104.789 55.4346 104.789C55.6085 104.795 55.776 104.815 55.9371 104.866Z" fill="#22252C"/>
</svg>
