<svg width="338" height="329" viewBox="0 0 338 329" fill="none" xmlns="http://www.w3.org/2000/svg">
<path d="M169 329C262.336 329 338 255.351 338 164.5C338 73.6491 262.336 0 169 0C75.6638 0 0 73.6491 0 164.5C0 255.351 75.6638 329 169 329Z" fill="#BFC5CB"/>
<path d="M169.799 234.963C169.532 234.963 169.266 235.222 169 235.222C168.734 235.222 168.467 234.963 168.201 234.963H169.799Z" fill="#859BA5"/>
<path d="M300.208 268.122C269.336 305.167 221.963 329 169 329C116.038 329 68.6644 305.167 37.792 268.122C59.8818 239.367 93.6815 225.119 121.36 218.125C119.231 235.222 128.28 258.019 128.546 257.501C137.861 236.776 169 234.963 169 234.963C169 234.963 200.138 236.776 209.187 257.501C209.453 258.019 218.768 235.222 216.373 218.125C244.318 225.119 278.384 239.367 300.208 268.122Z" fill="#859BA5"/>
<path d="M207.058 202.063C207.058 202.063 207.058 202.063 207.058 202.322C207.058 204.913 205.728 221.492 169.799 234.704H168.201C132.272 221.492 130.942 204.913 130.942 202.322C130.942 202.063 130.942 202.063 130.942 202.063C130.942 198.695 131.741 195.328 132.539 191.96C142.919 204.654 155.427 213.203 169 213.203C182.573 213.203 195.082 204.654 205.462 191.96C206.26 195.328 207.058 198.695 207.058 202.063Z" fill="white"/>
<path d="M207.058 202.063C207.058 202.063 208.921 220.715 169 235.222C169 235.222 200.138 237.036 209.187 257.76C209.72 258.278 227.551 213.203 207.058 202.063Z" fill="#7EABBD"/>
<path d="M130.942 202.063C110.449 213.203 128.28 258.278 128.813 257.501C138.128 236.776 169 234.963 169 234.963C129.079 220.715 130.942 202.063 130.942 202.063Z" fill="#7EABBD"/>
<path d="M224.889 136.522C222.494 152.583 215.308 167.609 203.332 179.007C200.937 181.338 198.808 183.152 196.146 184.966L191.888 171.754H146.112L141.853 184.966C133.337 178.748 115.506 161.391 115.239 145.071C107.787 52.0701 180.976 71.7582 180.976 71.7582C230.213 68.3905 228.616 110.617 224.889 136.522Z" fill="white"/>
<path d="M234.737 153.361C231.011 159.319 225.954 163.463 221.164 165.018C223.027 160.873 224.623 156.47 225.954 152.066C225.954 152.066 225.954 152.066 225.954 151.806C227.019 147.921 228.084 144.034 229.148 140.149H228.881C229.946 136.263 231.011 132.377 231.809 128.491C232.874 128.491 233.938 129.009 235.003 129.528C240.858 133.154 240.592 143.775 234.737 153.361Z" fill="white"/>
<path d="M116.836 165.018C112.045 163.463 106.989 159.319 103.263 153.361C97.1418 143.775 97.1418 133.154 102.997 129.787C103.529 129.528 103.795 129.268 104.328 129.268C107.521 141.444 111.247 150.511 112.045 152.325C113.377 156.47 114.973 160.873 116.836 165.018Z" fill="white"/>
<path d="M198.009 45.8528C200.138 22.0196 161.282 23.574 161.282 23.574C102.465 31.8638 96.0769 85.229 96.0769 85.229L104.062 75.9028C91.5525 102.586 110.449 148.438 112.045 152.066C121.893 183.929 143.716 213.202 169 213.202C194.284 213.202 216.107 183.929 225.955 152.066C225.955 152.066 225.955 152.066 225.955 151.806C227.019 147.921 228.084 144.034 228.882 140.149H228.616C233.938 119.425 239.794 98.4408 239.794 98.4408C254.964 24.0921 198.009 45.8528 198.009 45.8528ZM224.89 136.522C222.494 152.583 215.308 167.609 203.332 179.007C200.937 181.338 198.542 183.152 196.147 184.966L191.888 172.013H146.112L141.854 185.225C133.337 179.007 126.151 170.458 120.296 160.614C117.635 155.433 116.037 149.993 115.239 145.33C107.787 52.3291 180.977 72.0173 180.977 72.0173C230.213 68.3905 228.616 110.617 224.89 136.522Z" fill="#324A5E"/>
<path d="M198.009 45.8528C200.138 22.0196 161.282 23.574 161.282 23.574C102.465 31.8638 96.0769 85.229 96.0769 85.229L104.062 75.9028C91.5525 102.586 110.449 148.438 112.045 152.066C121.893 183.929 143.716 213.202 169 213.202C194.284 213.202 216.107 183.929 225.955 152.066C225.955 152.066 225.955 152.066 225.955 151.806C227.019 147.921 228.084 144.034 228.882 140.149H228.616C233.938 119.425 239.794 98.4408 239.794 98.4408C254.964 24.0921 198.009 45.8528 198.009 45.8528ZM224.89 136.522C222.494 152.583 215.308 167.609 203.332 179.007C200.937 181.338 198.542 183.152 196.147 184.966L191.888 172.013H146.112L141.854 185.225C133.337 179.007 115.506 161.65 115.239 145.33C107.787 52.3291 180.977 72.0173 180.977 72.0173C230.213 68.3905 228.616 110.617 224.89 136.522Z" fill="#22252C"/>
<path d="M150.37 180.821C154.894 185.742 161.548 189.11 169 189.11C176.452 189.11 183.106 186.001 187.63 180.821H150.37Z" fill="white"/>
</svg>
