<svg width="81" height="13" viewBox="0 0 81 13" fill="none" xmlns="http://www.w3.org/2000/svg">
<path id="AppInterest." d="M5.964 7.404H2.628L2.076 9H0.312L3.324 0.611999H5.28L8.292 9H6.516L5.964 7.404ZM5.508 6.06L4.296 2.556L3.084 6.06H5.508ZM11.6978 3.312C11.9138 3.008 12.2098 2.756 12.5858 2.556C12.9698 2.348 13.4058 2.244 13.8938 2.244C14.4618 2.244 14.9738 2.384 15.4298 2.664C15.8938 2.944 16.2578 3.344 16.5218 3.864C16.7938 4.376 16.9298 4.972 16.9298 5.652C16.9298 6.332 16.7938 6.936 16.5218 7.464C16.2578 7.984 15.8938 8.388 15.4298 8.676C14.9738 8.964 14.4618 9.108 13.8938 9.108C13.4058 9.108 12.9738 9.008 12.5978 8.808C12.2298 8.608 11.9298 8.356 11.6978 8.052V12.168H10.0178V2.352H11.6978V3.312ZM15.2138 5.652C15.2138 5.252 15.1298 4.908 14.9618 4.62C14.8018 4.324 14.5858 4.1 14.3138 3.948C14.0498 3.796 13.7618 3.72 13.4498 3.72C13.1458 3.72 12.8578 3.8 12.5858 3.96C12.3218 4.112 12.1058 4.336 11.9378 4.632C11.7778 4.928 11.6978 5.276 11.6978 5.676C11.6978 6.076 11.7778 6.424 11.9378 6.72C12.1058 7.016 12.3218 7.244 12.5858 7.404C12.8578 7.556 13.1458 7.632 13.4498 7.632C13.7618 7.632 14.0498 7.552 14.3138 7.392C14.5858 7.232 14.8018 7.004 14.9618 6.708C15.1298 6.412 15.2138 6.06 15.2138 5.652ZM20.4307 3.312C20.6467 3.008 20.9427 2.756 21.3187 2.556C21.7027 2.348 22.1387 2.244 22.6267 2.244C23.1947 2.244 23.7067 2.384 24.1627 2.664C24.6267 2.944 24.9907 3.344 25.2547 3.864C25.5267 4.376 25.6627 4.972 25.6627 5.652C25.6627 6.332 25.5267 6.936 25.2547 7.464C24.9907 7.984 24.6267 8.388 24.1627 8.676C23.7067 8.964 23.1947 9.108 22.6267 9.108C22.1387 9.108 21.7067 9.008 21.3307 8.808C20.9627 8.608 20.6627 8.356 20.4307 8.052V12.168H18.7507V2.352H20.4307V3.312ZM23.9467 5.652C23.9467 5.252 23.8627 4.908 23.6947 4.62C23.5347 4.324 23.3187 4.1 23.0467 3.948C22.7827 3.796 22.4947 3.72 22.1827 3.72C21.8787 3.72 21.5907 3.8 21.3187 3.96C21.0547 4.112 20.8387 4.336 20.6707 4.632C20.5107 4.928 20.4307 5.276 20.4307 5.676C20.4307 6.076 20.5107 6.424 20.6707 6.72C20.8387 7.016 21.0547 7.244 21.3187 7.404C21.5907 7.556 21.8787 7.632 22.1827 7.632C22.4947 7.632 22.7827 7.552 23.0467 7.392C23.3187 7.232 23.5347 7.004 23.6947 6.708C23.8627 6.412 23.9467 6.06 23.9467 5.652ZM29.1635 0.624V9H27.4835V0.624H29.1635ZM35.1073 2.256C35.8993 2.256 36.5393 2.508 37.0273 3.012C37.5153 3.508 37.7593 4.204 37.7593 5.1V9H36.0793V5.328C36.0793 4.8 35.9473 4.396 35.6833 4.116C35.4193 3.828 35.0593 3.684 34.6033 3.684C34.1393 3.684 33.7713 3.828 33.4993 4.116C33.2353 4.396 33.1033 4.8 33.1033 5.328V9H31.4233V2.352H33.1033V3.18C33.3273 2.892 33.6113 2.668 33.9553 2.508C34.3073 2.34 34.6913 2.256 35.1073 2.256ZM41.9129 3.732V6.948C41.9129 7.172 41.9649 7.336 42.0689 7.44C42.1809 7.536 42.3649 7.584 42.6209 7.584H43.4009V9H42.3449C40.9289 9 40.2209 8.312 40.2209 6.936V3.732H39.4289V2.352H40.2209V0.707999H41.9129V2.352H43.4009V3.732H41.9129ZM51.3892 5.532C51.3892 5.772 51.3732 5.988 51.3412 6.18H46.4812C46.5212 6.66 46.6892 7.036 46.9852 7.308C47.2812 7.58 47.6452 7.716 48.0772 7.716C48.7012 7.716 49.1452 7.448 49.4092 6.912H51.2212C51.0292 7.552 50.6612 8.08 50.1172 8.496C49.5732 8.904 48.9052 9.108 48.1132 9.108C47.4732 9.108 46.8972 8.968 46.3852 8.688C45.8812 8.4 45.4852 7.996 45.1972 7.476C44.9172 6.956 44.7772 6.356 44.7772 5.676C44.7772 4.988 44.9172 4.384 45.1972 3.864C45.4772 3.344 45.8692 2.944 46.3732 2.664C46.8772 2.384 47.4572 2.244 48.1132 2.244C48.7452 2.244 49.3092 2.38 49.8052 2.652C50.3092 2.924 50.6972 3.312 50.9692 3.816C51.2492 4.312 51.3892 4.884 51.3892 5.532ZM49.6492 5.052C49.6412 4.62 49.4852 4.276 49.1812 4.02C48.8772 3.756 48.5052 3.624 48.0652 3.624C47.6492 3.624 47.2972 3.752 47.0092 4.008C46.7292 4.256 46.5572 4.604 46.4932 5.052H49.6492ZM54.8955 3.384C55.1115 3.032 55.3915 2.756 55.7355 2.556C56.0875 2.356 56.4875 2.256 56.9355 2.256V4.02H56.4915C55.9635 4.02 55.5635 4.144 55.2915 4.392C55.0275 4.64 54.8955 5.072 54.8955 5.688V9H53.2155V2.352H54.8955V3.384ZM64.8471 5.532C64.8471 5.772 64.8311 5.988 64.7991 6.18H59.9391C59.9791 6.66 60.1471 7.036 60.4431 7.308C60.7391 7.58 61.1031 7.716 61.5351 7.716C62.1591 7.716 62.6031 7.448 62.8671 6.912H64.6791C64.4871 7.552 64.1191 8.08 63.5751 8.496C63.0311 8.904 62.3631 9.108 61.5711 9.108C60.9311 9.108 60.3551 8.968 59.8431 8.688C59.3391 8.4 58.9431 7.996 58.6551 7.476C58.3751 6.956 58.2351 6.356 58.2351 5.676C58.2351 4.988 58.3751 4.384 58.6551 3.864C58.9351 3.344 59.3271 2.944 59.8311 2.664C60.3351 2.384 60.9151 2.244 61.5711 2.244C62.2031 2.244 62.7671 2.38 63.2631 2.652C63.7671 2.924 64.1551 3.312 64.4271 3.816C64.7071 4.312 64.8471 4.884 64.8471 5.532ZM63.1071 5.052C63.0991 4.62 62.9431 4.276 62.6391 4.02C62.3351 3.756 61.9631 3.624 61.5231 3.624C61.1071 3.624 60.7551 3.752 60.4671 4.008C60.1871 4.256 60.0151 4.604 59.9511 5.052H63.1071ZM69.2173 9.108C68.6733 9.108 68.1853 9.012 67.7533 8.82C67.3213 8.62 66.9773 8.352 66.7213 8.016C66.4733 7.68 66.3373 7.308 66.3133 6.9H68.0053C68.0373 7.156 68.1613 7.368 68.3773 7.536C68.6013 7.704 68.8773 7.788 69.2053 7.788C69.5253 7.788 69.7733 7.724 69.9493 7.596C70.1333 7.468 70.2253 7.304 70.2253 7.104C70.2253 6.888 70.1133 6.728 69.8893 6.624C69.6733 6.512 69.3253 6.392 68.8453 6.264C68.3493 6.144 67.9413 6.02 67.6213 5.892C67.3093 5.764 67.0373 5.568 66.8053 5.304C66.5813 5.04 66.4693 4.684 66.4693 4.236C66.4693 3.868 66.5733 3.532 66.7813 3.228C66.9973 2.924 67.3013 2.684 67.6933 2.508C68.0933 2.332 68.5613 2.244 69.0973 2.244C69.8893 2.244 70.5213 2.444 70.9933 2.844C71.4653 3.236 71.7253 3.768 71.7733 4.44H70.1653C70.1413 4.176 70.0293 3.968 69.8293 3.816C69.6373 3.656 69.3773 3.576 69.0493 3.576C68.7453 3.576 68.5093 3.632 68.3413 3.744C68.1813 3.856 68.1013 4.012 68.1013 4.212C68.1013 4.436 68.2133 4.608 68.4373 4.728C68.6613 4.84 69.0093 4.956 69.4813 5.076C69.9613 5.196 70.3573 5.32 70.6693 5.448C70.9813 5.576 71.2493 5.776 71.4733 6.048C71.7053 6.312 71.8253 6.664 71.8333 7.104C71.8333 7.488 71.7253 7.832 71.5093 8.136C71.3013 8.44 70.9973 8.68 70.5973 8.856C70.2053 9.024 69.7453 9.108 69.2173 9.108ZM75.7684 3.732V6.948C75.7684 7.172 75.8204 7.336 75.9244 7.44C76.0364 7.536 76.2204 7.584 76.4764 7.584H77.2564V9H76.2004C74.7844 9 74.0764 8.312 74.0764 6.936V3.732H73.2844V2.352H74.0764V0.707999H75.7684V2.352H77.2564V3.732H75.7684ZM79.8087 9.084C79.5047 9.084 79.2527 8.992 79.0527 8.808C78.8607 8.616 78.7647 8.38 78.7647 8.1C78.7647 7.82 78.8607 7.588 79.0527 7.404C79.2527 7.212 79.5047 7.116 79.8087 7.116C80.1047 7.116 80.3487 7.212 80.5407 7.404C80.7327 7.588 80.8287 7.82 80.8287 8.1C80.8287 8.38 80.7327 8.616 80.5407 8.808C80.3487 8.992 80.1047 9.084 79.8087 9.084Z" fill="black"/>
</svg>
